<?xml version="1.0" standalone="no"?>
<!DOCTYPE svg PUBLIC "-//W3C//DTD SVG 20010904//EN"
 "http://www.w3.org/TR/2001/REC-SVG-20010904/DTD/svg10.dtd">
<svg version="1.0" xmlns="http://www.w3.org/2000/svg"
 width="150.000000pt" height="150.000000pt" viewBox="0 0 150.000000 150.000000"
 preserveAspectRatio="xMidYMid meet">
<metadata>
Created by potrace 1.11, written by Peter Selinger 2001-2013
</metadata>
<g transform="translate(0.000000,150.000000) scale(0.100000,-0.100000)"
fill="#000000" stroke="none">
<path d="M1297 1351 c-9 -15 -14 -37 -10 -49 3 -13 -1 -28 -11 -37 -8 -9 -13
-22 -10 -30 4 -8 1 -15 -4 -15 -20 0 -21 16 -1 46 27 42 23 52 -8 18 -15 -16
-27 -31 -26 -34 1 -3 -14 -4 -34 -2 -40 5 -102 -22 -171 -75 -24 -18 -47 -33
-52 -33 -4 0 -22 -13 -38 -29 -17 -15 -66 -42 -110 -60 -95 -37 -178 -41 -316
-12 -104 21 -206 27 -206 12 0 -6 -7 -7 -17 -4 -11 4 -14 3 -9 -5 5 -8 2 -10
-8 -6 -9 3 -16 1 -16 -6 0 -6 -4 -8 -10 -5 -5 3 -25 3 -45 -1 -43 -8 -100 -63
-127 -121 -17 -39 -37 -157 -43 -258 -1 -22 -6 -48 -10 -57 -4 -10 -3 -18 2
-18 4 0 7 -20 5 -45 -3 -36 -1 -44 10 -40 10 4 15 -1 15 -12 -1 -10 1 -36 3
-58 2 -32 4 -26 11 33 6 52 15 82 33 105 35 46 49 106 37 159 -15 62 -19 168
-9 203 5 17 11 39 13 49 6 27 24 36 52 25 16 -6 22 -5 18 1 -3 6 -14 10 -23
11 -12 0 -10 3 6 10 27 10 92 5 101 -9 3 -5 14 -9 24 -9 9 0 14 3 11 6 -3 3
-11 6 -17 6 -5 0 -12 6 -14 13 -7 18 52 15 67 -3 7 -8 9 -15 5 -15 -5 0 -1 -8
8 -18 9 -10 18 -29 20 -42 2 -13 10 -26 17 -28 9 -3 11 1 7 11 -8 20 13 71 30
74 22 5 43 -53 40 -112 -2 -50 -3 -54 -13 -30 -12 30 -26 22 -18 -10 7 -29
-20 -53 -41 -35 -21 18 -47 5 -43 -22 2 -16 9 -22 23 -21 12 2 28 -8 39 -23
l19 -26 -26 17 c-24 16 -29 16 -59 0 -31 -15 -32 -15 -17 1 12 11 15 27 12 55
-5 35 -3 40 21 49 18 7 26 17 26 34 0 33 -20 44 -37 21 -10 -15 -13 -15 -13
-4 0 8 5 20 12 27 9 9 9 15 -1 25 -10 10 -11 9 -6 -5 4 -11 -1 -20 -15 -28
-14 -7 -19 -17 -16 -27 5 -13 4 -14 -9 -3 -14 11 -19 7 -16 -12 0 -4 -3 -18
-9 -32 -5 -14 -5 -26 0 -28 5 -2 11 -19 14 -38 6 -33 5 -34 -9 -16 -11 15 -15
16 -15 5 0 -8 5 -20 10 -25 7 -7 7 -19 1 -35 -11 -28 -64 -92 -55 -68 3 10 0
20 -7 24 -7 5 -10 3 -7 -6 7 -18 -10 -51 -23 -44 -5 4 -9 1 -9 -5 0 -19 -29
-42 -45 -36 -10 3 -15 -1 -16 -12 0 -10 -3 -12 -6 -4 -7 17 -16 15 -31 -8 -12
-19 -11 -20 15 -14 16 3 23 2 16 -3 -6 -4 -11 -17 -10 -28 1 -14 -4 -20 -19
-19 -18 0 -21 -5 -20 -45 1 -25 -2 -56 -6 -69 -13 -38 -17 -92 -7 -92 5 0 9
-5 9 -11 0 -5 -4 -8 -9 -5 -5 4 -7 -3 -4 -13 3 -13 10 -18 20 -14 10 4 14 2
11 -7 -2 -8 4 -22 14 -32 27 -27 22 -38 -12 -28 -36 10 -41 -6 -7 -21 18 -8
16 -9 -13 -4 -26 4 -32 3 -23 -6 10 -10 30 -9 88 2 45 8 103 12 141 9 35 -3
64 -2 64 2 0 5 -6 8 -13 8 -7 0 -29 25 -49 55 -35 51 -44 81 -52 180 -4 48
103 325 126 325 4 0 43 -18 86 -40 92 -47 151 -60 283 -60 99 0 99 0 99 -25 0
-18 4 -23 16 -18 11 4 15 2 13 -6 -3 -7 -9 -11 -14 -9 -6 2 -13 -22 -16 -52
-4 -30 -10 -63 -14 -73 -4 -10 -3 -17 4 -17 6 0 11 9 11 19 0 30 11 51 25 51
16 0 14 -88 -2 -98 -14 -10 -31 -69 -35 -118 -2 -36 2 -45 30 -69 36 -30 40
-27 16 11 -19 27 -15 105 6 159 11 27 13 28 20 10 4 -11 6 23 4 75 -4 96 -19
182 -36 210 -6 11 -8 7 -3 -13 5 -26 4 -27 -22 -21 -16 4 -35 13 -43 22 -13
13 -13 14 5 8 35 -13 40 -11 38 9 -1 11 6 31 16 44 12 15 18 18 18 8 0 -8 6
-29 13 -47 11 -28 17 -31 46 -27 30 4 32 3 24 -17 -4 -12 -7 -50 -6 -83 1 -38
-2 -61 -9 -60 -5 1 -11 -10 -13 -26 -2 -15 2 -27 8 -27 7 0 7 -7 -2 -22 -13
-24 -12 -149 1 -158 5 -3 11 -18 15 -33 4 -16 21 -42 39 -59 34 -34 27 -45
-17 -28 -16 6 -31 22 -37 40 -6 16 -15 27 -20 24 -5 -3 -9 0 -9 5 0 6 -4 11
-10 11 -5 0 -7 -6 -4 -14 3 -8 0 -25 -7 -37 l-12 -23 -8 21 c-6 15 -14 20 -28
16 -16 -4 -21 -1 -21 15 0 11 -7 33 -15 48 l-15 29 0 -33 c0 -20 4 -31 10 -27
17 11 11 -22 -7 -36 -11 -10 -14 -10 -9 -2 8 14 3 15 -54 15 l-35 -1 30 9 c30
8 30 8 -8 9 -26 1 -36 5 -31 13 5 7 3 8 -7 3 -19 -12 -52 -14 -65 -4 -5 4 -44
5 -85 2 -54 -5 -67 -9 -49 -14 l25 -7 -25 -1 c-21 -1 -22 -3 -10 -12 12 -8 9
-10 -12 -6 -15 2 -25 0 -22 -5 5 -7 32 -7 81 2 1 0 0 6 -3 14 -4 11 3 13 33
10 27 -2 34 -1 23 6 -13 8 -12 10 3 10 9 0 17 -5 17 -11 0 -5 4 -8 9 -4 5 3
12 1 15 -3 3 -5 -15 -8 -39 -7 -49 1 -51 0 -33 -19 10 -11 23 -10 72 5 33 10
62 16 65 14 2 -3 -2 -6 -10 -6 -8 -1 0 -5 16 -9 l30 -9 -35 1 c-53 0 -60 -1
-60 -13 0 -5 5 -7 12 -3 7 5 29 7 50 5 21 -1 38 1 38 6 0 12 43 14 50 3 9 -14
108 -28 119 -17 8 8 17 4 31 -11 22 -23 76 -30 108 -13 9 5 32 16 50 23 39 16
42 27 6 20 -19 -3 -25 -1 -20 7 4 6 11 9 15 7 4 -3 13 -1 20 3 8 5 -7 11 -39
15 -29 4 -55 5 -58 1 -3 -3 8 -5 24 -6 29 0 29 0 5 -10 -40 -16 -64 17 -72 99
-3 37 -2 75 3 85 5 9 11 41 14 70 14 144 17 153 70 202 27 25 46 52 49 70 3
17 8 48 11 70 4 22 22 61 40 87 18 25 42 63 53 85 36 69 34 68 82 24 46 -44
63 -50 73 -26 7 19 45 20 52 1 14 -37 77 -28 94 14 20 48 -1 86 -107 198 -51
54 -86 101 -66 89 15 -10 59 91 46 104 -8 8 -16 3 -27 -17 l-16 -29 4 32 c6
43 -6 49 -27 14z m-80 -146 c13 -9 24 -11 28 -6 10 17 41 8 41 -11 0 -10 -4
-18 -9 -18 -4 0 -5 -5 -1 -11 5 -8 10 -6 16 5 11 19 32 22 25 2 -3 -7 0 -19 6
-26 9 -10 8 -12 -5 -7 -10 4 -17 3 -17 -1 4 -22 -3 -30 -21 -27 -19 4 -19 3 2
-26 25 -33 34 -38 18 -10 -7 15 -7 19 5 17 8 -1 18 -6 22 -11 4 -4 2 -5 -4 -1
-7 4 -13 3 -13 -1 0 -5 6 -15 13 -22 10 -11 10 -13 0 -7 -8 4 -13 1 -13 -8 0
-9 -5 -16 -11 -16 -5 0 -7 5 -3 12 5 8 0 9 -15 5 -15 -4 -25 1 -33 16 -7 12
-11 25 -10 30 1 4 -3 7 -9 7 -6 0 -8 -8 -4 -19 3 -11 1 -22 -5 -26 -5 -3 -10
2 -10 13 0 11 -8 26 -17 33 -15 11 -16 11 -5 -1 18 -21 15 -35 -5 -19 -11 9
-14 10 -9 2 4 -7 2 -22 -5 -34 -9 -17 -8 -20 3 -13 11 6 11 5 -1 -9 -7 -9 -10
-17 -5 -17 5 0 1 -5 -8 -11 -10 -5 -15 -17 -12 -27 4 -10 2 -13 -3 -7 -4 6
-17 10 -29 9 -11 -1 -21 4 -21 11 0 7 9 10 21 7 17 -4 19 -2 9 9 -7 7 -13 21
-13 31 0 9 -10 22 -21 29 -20 10 -21 9 -16 -11 5 -20 4 -21 -12 -6 -16 14 -17
13 -16 -10 0 -13 7 -29 15 -34 18 -11 9 -23 -12 -15 -8 3 -20 22 -27 43 -18
49 -31 64 -45 54 -6 -5 -24 -12 -41 -16 -75 -17 -134 -39 -128 -49 4 -6 -2 -8
-15 -5 -12 4 -22 3 -22 -2 0 -4 -12 -5 -27 -2 -20 4 5 15 108 49 135 43 199
71 199 85 0 5 6 8 13 8 14 0 100 59 105 72 6 12 26 9 49 -7z m128 -103 c-3 -3
-11 0 -18 7 -9 10 -8 11 6 5 10 -3 15 -9 12 -12z m24 -49 c-13 -16 -25 -30
-26 -32 -2 -2 -5 -2 -8 1 -5 5 43 58 53 58 3 0 -5 -12 -19 -27z m100 -17 c7
-8 14 -24 16 -36 4 -22 4 -22 -15 -5 -19 17 -20 17 -20 -3 0 -12 5 -21 11 -19
22 4 19 -20 -4 -30 -30 -14 -57 0 -58 30 0 12 -3 16 -6 9 -4 -10 -8 -9 -19 5
-7 10 -13 23 -14 28 0 6 5 3 10 -5 8 -13 11 -12 23 4 8 11 19 16 24 13 6 -4
13 0 17 8 7 19 20 19 35 1z m-583 -62 c1 -9 12 -23 23 -31 21 -14 31 -50 11
-38 -6 4 -8 11 -5 16 4 5 2 9 -3 9 -12 0 -24 -29 -17 -41 4 -5 -1 -6 -10 -3
-13 5 -13 9 -3 22 10 12 10 14 1 8 -20 -12 -35 3 -19 19 8 8 11 25 8 42 -2 15
-1 24 4 20 4 -4 9 -15 10 -23z m38 14 c-3 -4 0 -16 5 -25 10 -17 10 -17 11 -1
0 31 28 8 35 -28 3 -19 10 -32 16 -29 5 4 9 3 8 -2 -4 -21 2 -34 13 -27 6 4 8
3 4 -4 -3 -6 -2 -13 4 -17 11 -7 9 -95 -3 -95 -4 0 -5 -4 -2 -10 3 -5 -8 -24
-25 -42 -17 -17 -28 -25 -25 -16 4 9 1 19 -6 24 -8 4 -10 3 -5 -4 4 -7 2 -12
-3 -12 -6 0 -11 5 -11 10 0 6 -11 3 -25 -6 l-25 -16 6 30 c4 22 0 41 -14 64
-11 18 -22 37 -24 43 -2 5 -11 10 -21 10 -11 1 -22 6 -25 11 -12 16 -35 10
-43 -11 -12 -31 -10 -35 9 -28 14 5 13 3 -3 -10 -11 -9 -16 -17 -12 -17 4 0 2
-6 -5 -13 -10 -12 -15 -11 -28 2 -8 9 -14 15 -13 13 1 -3 -2 -14 -8 -25 -9
-15 -8 -18 2 -12 20 13 -2 -18 -25 -35 -24 -17 -78 -18 -84 -1 -2 6 -11 11
-20 11 -12 0 -13 3 -4 12 7 7 12 17 12 23 0 5 -4 4 -9 -4 -6 -9 -16 -11 -27
-7 -16 6 -16 8 -4 16 13 9 13 10 0 11 -8 1 -18 1 -22 0 -8 -1 -10 5 -13 51 -4
50 50 78 95 49 l25 -16 -18 27 c-14 22 -14 26 -2 22 8 -4 15 -11 15 -17 0 -6
3 -7 7 -3 4 4 8 14 8 22 0 20 19 13 20 -8 1 -9 -2 -15 -6 -12 -14 8 -18 -12
-9 -42 l8 -29 1 30 c2 29 2 29 16 11 15 -19 15 -19 15 2 0 12 6 22 13 22 8 0
9 3 1 8 -13 9 -26 54 -13 46 5 -3 9 -10 9 -16 0 -5 10 -24 22 -41 13 -18 21
-40 20 -50 -3 -13 0 -17 8 -12 7 4 10 19 6 36 -3 16 -1 31 6 35 8 5 9 1 4 -11
-5 -15 -4 -16 9 -5 11 9 15 9 15 1 0 -7 5 -9 11 -5 6 3 16 0 21 -7 7 -10 8 -5
4 16 -5 25 -4 27 5 12 6 -10 8 -25 5 -33 -3 -8 -1 -14 4 -14 19 0 19 18 0 56
l-20 39 28 -31 c15 -17 32 -39 39 -50 11 -19 11 -19 10 0 -1 12 8 25 21 32 41
20 49 34 29 45 -9 6 -23 23 -31 38 -13 23 -13 28 -1 28 8 0 12 -4 9 -9z m417
-2 c-13 -16 -51 -18 -51 -3 0 5 9 7 20 4 11 -3 23 -1 26 4 3 5 8 9 11 9 3 0 0
-6 -6 -14z m-11 -36 c0 -5 -4 -10 -10 -10 -5 0 -10 5 -10 10 0 6 5 10 10 10 6
0 10 -4 10 -10z m-266 -45 c3 -8 1 -15 -3 -15 -5 0 -11 7 -15 15 -3 8 -1 15 3
15 5 0 11 -7 15 -15z m-244 -95 c8 -15 8 -18 -3 -14 -8 3 -14 11 -14 19 0 20
4 19 17 -5z m-575 -242 c-12 -41 -30 -78 -37 -78 -11 0 -10 18 2 25 6 3 10 11
10 18 0 6 -7 4 -17 -5 -14 -15 -15 -21 -4 -44 15 -33 5 -46 -15 -20 -18 25 -9
53 30 93 38 38 39 39 31 11z m-63 -272 c1 -63 5 -83 21 -99 23 -23 11 -40 -32
-42 -26 -1 -32 5 -51 46 -19 40 -21 57 -16 110 9 80 15 106 34 144 l16 30 13
-55 c7 -30 14 -91 15 -134z m33 30 c8 -43 12 -82 9 -88 -7 -11 27 -38 40 -31
5 3 7 0 4 -8 -3 -8 -13 -16 -23 -17 -10 -3 -15 0 -11 7 6 10 -6 15 -26 12 -10
-1 -10 -3 -13 95 -1 44 -6 91 -10 105 -5 17 -4 21 4 13 6 -5 18 -45 26 -88z
m85 -162 c0 -8 -6 -14 -14 -14 -9 0 -12 7 -9 20 6 22 23 18 23 -6z"/>
<path d="M1250 1183 c0 -13 -3 -14 -12 -5 -7 7 -15 12 -18 12 -5 0 -5 -38 -1
-82 1 -5 6 -8 11 -8 6 0 9 3 9 8 -4 22 2 42 11 37 6 -4 8 -11 5 -16 -4 -5 -1
-9 4 -9 14 0 14 17 1 25 -6 3 -7 17 -4 31 3 13 3 24 0 24 -3 0 -6 -8 -6 -17z"/>
<path d="M1177 1176 c-4 -10 -1 -13 8 -9 8 3 12 9 9 14 -7 12 -11 11 -17 -5z"/>
<path d="M1150 1139 c0 -5 5 -7 10 -4 6 3 10 8 10 11 0 2 -4 4 -10 4 -5 0 -10
-5 -10 -11z"/>
<path d="M1098 1114 c-9 -9 2 -35 12 -29 5 3 11 1 15 -5 3 -5 -1 -10 -9 -10
-20 0 -21 -14 -2 -29 11 -9 15 -5 20 20 3 16 9 28 14 25 4 -2 9 4 9 15 1 12
-3 18 -10 16 -7 -3 -11 -10 -9 -16 3 -16 -16 -13 -26 4 -4 9 -11 13 -14 9z"/>
<path d="M1009 1083 c-13 -15 -12 -15 9 -4 23 12 28 21 13 21 -5 0 -15 -7 -22
-17z"/>
<path d="M1410 976 c0 -2 7 -9 15 -16 13 -11 14 -10 9 4 -5 14 -24 23 -24 12z"/>
<path d="M877 936 c-4 -10 -1 -13 8 -9 8 3 12 9 9 14 -7 12 -11 11 -17 -5z"/>
<path d="M981 870 c14 -31 19 -36 19 -24 0 6 -7 19 -16 30 -14 18 -14 18 -3
-6z"/>
<path d="M564 868 c3 -15 26 -23 26 -8 0 6 -4 9 -9 6 -5 -4 -12 -1 -14 4 -3 6
-4 5 -3 -2z"/>
<path d="M539 860 c-6 -41 -5 -70 3 -70 11 0 28 44 18 50 -4 3 -10 12 -13 20
-5 13 -6 13 -8 0z m8 -42 c-3 -8 -6 -5 -6 6 -1 11 2 17 5 13 3 -3 4 -12 1 -19z"/>
<path d="M961 860 c0 -8 4 -24 9 -35 5 -13 9 -14 9 -5 0 8 -4 24 -9 35 -5 13
-9 14 -9 5z"/>
<path d="M711 836 c-1 -16 0 -27 2 -25 1 2 9 13 17 23 8 11 10 17 3 13 -6 -4
-14 -1 -16 5 -3 7 -6 0 -6 -16z"/>
<path d="M735 791 c-3 -5 -1 -12 5 -16 5 -3 10 1 10 9 0 18 -6 21 -15 7z"/>
<path d="M667 743 c-4 -3 -7 -11 -7 -17 0 -6 5 -5 12 2 6 6 9 14 7 17 -3 3 -9
2 -12 -2z"/>
<path d="M158 183 c6 -2 18 -2 25 0 6 3 1 5 -13 5 -14 0 -19 -2 -12 -5z"/>
<path d="M228 993 c7 -3 16 -2 19 1 4 3 -2 6 -13 5 -11 0 -14 -3 -6 -6z"/>
<path d="M170 960 c0 -5 5 -10 11 -10 5 0 7 5 4 10 -3 6 -8 10 -11 10 -2 0 -4
-4 -4 -10z"/>
<path d="M456 930 c10 -16 19 -28 21 -26 7 7 -17 56 -27 56 -7 0 -4 -13 6 -30z"/>
<path d="M216 854 c-3 -9 -11 -12 -18 -8 -9 5 -8 2 1 -9 16 -20 23 -16 28 13
3 24 -2 26 -11 4z"/>
<path d="M130 840 c0 -6 6 -10 13 -10 9 0 8 -3 -2 -9 -7 -5 -11 -13 -8 -18 3
-5 9 -23 12 -39 3 -16 8 -36 10 -44 2 -8 4 -18 4 -22 1 -5 6 -8 12 -8 8 0 9
11 4 33 -14 66 -12 82 12 81 21 -1 21 0 6 20 -17 22 -63 34 -63 16z"/>
<path d="M270 801 c0 -6 4 -13 10 -16 6 -3 7 1 4 9 -7 18 -14 21 -14 7z"/>
<path d="M175 773 c-3 -10 -3 -14 1 -10 4 4 13 2 21 -4 17 -15 17 -1 -1 16
-12 12 -15 12 -21 -2z"/>
<path d="M259 745 c-1 -3 -2 -10 -3 -15 -1 -14 -28 -30 -38 -24 -5 3 -6 10 -3
15 3 5 -1 6 -9 3 -20 -8 -20 -14 -1 -40 12 -18 31 -23 66 -15 10 2 30 53 24
60 -3 3 -10 0 -14 -8 -7 -10 -9 -10 -14 3 -3 8 -1 17 6 20 9 3 9 5 0 5 -7 1
-14 -1 -14 -4z"/>
<path d="M817 393 c-4 -3 -7 -11 -7 -17 0 -6 5 -5 12 2 6 6 9 14 7 17 -3 3 -9
2 -12 -2z"/>
<path d="M35 304 c-3 -16 -9 -40 -13 -54 -10 -33 -4 -60 14 -60 11 0 13 -6 9
-20 -3 -11 -2 -20 3 -20 19 0 20 39 2 58 -15 16 -17 27 -9 67 5 27 7 50 4 53
-2 2 -7 -9 -10 -24z"/>
<path d="M891 290 c-1 -14 -4 -36 -6 -50 l-6 -25 11 25 c6 13 9 36 7 50 l-4
25 -2 -25z"/>
<path d="M344 199 c23 -14 72 -18 89 -7 7 5 -2 8 -23 9 -19 0 -46 2 -60 5 -22
3 -23 2 -6 -7z"/>
<path d="M1110 173 c0 -15 2 -16 10 -3 6 10 10 11 10 3 0 -7 10 -13 22 -13 32
0 16 -9 -33 -19 -39 -8 -35 -9 33 -7 43 0 78 4 78 9 0 4 -9 7 -21 7 -11 0 -27
6 -35 14 -12 13 -11 15 8 19 13 2 2 5 -24 6 -40 1 -48 -2 -48 -16z"/>
<path d="M365 170 c-30 -8 -30 -8 8 -9 20 0 37 4 37 9 0 11 -2 11 -45 0z"/>
<path d="M1215 170 c-4 -6 7 -10 26 -10 18 0 29 3 25 7 -11 11 -45 13 -51 3z"/>
<path d="M945 150 c3 -5 11 -10 16 -10 6 0 7 5 4 10 -3 6 -11 10 -16 10 -6 0
-7 -4 -4 -10z"/>
<path d="M1338 153 c7 -3 16 -2 19 1 4 3 -2 6 -13 5 -11 0 -14 -3 -6 -6z"/>
<path d="M5 140 c4 -6 11 -8 16 -5 14 9 11 15 -7 15 -8 0 -12 -5 -9 -10z"/>
<path d="M425 140 c-3 -5 -1 -10 4 -10 6 0 11 5 11 10 0 6 -2 10 -4 10 -3 0
-8 -4 -11 -10z"/>
<path d="M485 140 c-2 -4 9 -6 25 -6 16 0 27 3 24 7 -5 9 -44 8 -49 -1z"/>
<path d="M1240 140 c0 -5 7 -7 15 -4 8 4 15 8 15 10 0 2 -7 4 -15 4 -8 0 -15
-4 -15 -10z"/>
</g>
</svg>
